<?xml version="1.0" encoding="UTF-8"?>
<svg xmlns="http://www.w3.org/2000/svg" viewBox="0 0 174.61 174.61">
  <defs>
    <style>
      .cls-1 {
        fill: #fff;
      }

      .cls-2 {
        fill: #a0d3b8;
      }
    </style>
  </defs>
  <g id="_图层_1" data-name="图层 1" shape-rendering="geometricPrecision">
    <path class="cls-1" d="M87.3,0c48.22,0,87.3,39.09,87.3,87.3s-39.09,87.3-87.3,87.3S0,135.52,0,87.3,39.09,0,87.3,0Z"/>
    <path class="cls-2" d="M46.58,71.68c8.63.65,15.1,8.17,14.45,16.8-.65,8.63-8.17,15.1-16.8,14.45-8.63-.65-15.1-8.17-14.45-16.8.65-8.63,8.17-15.1,16.8-14.45Z"/>
    <path class="cls-2" d="M87.3,0c48.22,0,87.3,39.09,87.3,87.3s-39.09,87.3-87.3,87.3v-5.86c44.98,0,81.45-36.46,81.45-81.45S132.29,5.86,87.3,5.86,5.86,42.32,5.86,87.3s36.46,81.45,81.45,81.45v5.86C39.09,174.61,0,135.52,0,87.3S39.09,0,87.3,0ZM87.3,5.86c44.98,0,81.45,36.46,81.45,81.45,0,22.49-18.23,40.72-40.72,40.72h0v-25.1c8.63,0,15.62-7,15.62-15.62s-7-15.62-15.62-15.62-15.62,7-15.62,15.62,7,15.62,15.62,15.62v25.1c-22.49,0-40.72-18.23-40.72-40.72h0c0-22.49-18.23-40.72-40.72-40.72S5.86,64.81,5.86,87.3C5.86,42.32,42.32,5.86,87.3,5.86Z"/>
  </g>
</svg>